#!OML:ASF F:\VICON\USERDATA\INSTALL\rory3\rory3.ASF
:FULLY-SPECIFIED
:DEGREES
27
root 0.429459997369635 18.006902225489686 20.17516804414529 -4.642916092094354 -1.1504250704602712 1.726393855680088
lfemur -4.942170295095885 -2.981543333341691 -27.37338663527395
ltibia 29.05370514871175
lfoot -13.055255661905292 -1.0860750435435769
ltoes 1.1824578877055378
rfemur -28.710172745227222 -4.106916154913021 19.925504323985052
rtibia 88.14772065512871
rfoot 0.7419025109653896 -7.884915720135691
rtoes 11.454437179844884
lowerback 11.567238176220686 0.24250174538796992 -2.2260434872656054
upperback 0.45366192592908633 0.11851589757251757 0.5436367472906869
thorax -6.08463070327117 0.12435063570670951 1.9372796694585563
lowerneck -15.967133026602694 -2.765239037637253 -2.0391112543433025
upperneck 21.155414554823565 -3.5707048477185044 1.0955998335607027
head 9.353277763635708 -1.7077749263550872 0.24720616913161617
lclavicle -9.624252808149519e-16 -8.111740022635575e-16
lhumerus -32.89083558712813 2.2617241384526565 81.80934622643886
lradius 30.18774490467138
lwrist 7.578545143493855
lhand -28.43494483332098 19.81528218701119
lfingers 7.125020000000057
lthumb -1.805685208576648 49.76518910947927
rclavicle -9.624252808149525e-16 -8.111740022635578e-16
rhumerus -32.960767257967625 -19.44208379212498 -79.83803397519681
rradius 32.951878494718876
rwrist 4.027955751360634
rhand -17.256314627613122 29.032613489183323
rfingers 7.125020000000057
rthumb 8.987548865346799 -4.408751527341539
28
root 0.466397111658232 18.054886100991286 22.170430009241233 -4.5677771729938055 -0.3634938087682359 2.467525795512674
lfemur -1.481093199635641 -2.9078801890786856 -28.987119471424794
ltibia 25.763822528732884
lfoot -15.101380928468517 -1.063983201996204
ltoes 3.5480086648094327
rfemur -30.347023313636612 -3.371136866692136 18.449940219218945
rtibia 76.0726700703589
rfoot -0.014162783188883754 -9.722749110310655
rtoes 6.321771386529308
lowerback 10.978675457496223 -0.123802045875675 -3.0820963467040468
upperback 0.42367328695293455 -0.5015017034832557 0.47288382496106185
thorax -5.775399543504747 -0.15790458326918866 2.4701615176654563
lowerneck -15.727165209529096 -2.782039683283963 -2.249144606202694
upperneck 21.4252829035923 -3.5575226986002684 1.1117310426000546
head 9.403089114191374 -1.7085872467470817 0.28359376443371925
lclavicle -1.1045366977379208e-15 -9.210157641623564e-16
lhumerus -30.372325555091287 0.4158618314995537 81.0293482801627
lradius 27.833368606794096
lwrist 6.516098397073254
lhand -28.48989080864823 21.6303704350429
lfingers 7.125020000000056
lthumb -1.8587746734724557 51.60100147851234
rclavicle -1.1045366977379206e-15 -9.210157641623566e-16
rhumerus -33.06016656688429 -20.972362842403378 -79.01705726508085
rradius 29.20853550487803
rwrist 4.281833381003078
rhand -17.09239677633406 28.752688827776062
rfingers 7.125020000000056
rthumb 9.145739936459712 -5.016640123105074
29
root 0.45035041368191275 17.914271633210838 22.55127122079874 -3.561879293721508 0.31538166012855884 3.1203186351224947
lfemur 0.7510709792462453 -2.5068372780554817 -29.78123574046935
ltibia 21.928203616423357
lfoot -19.859634413532937 1.1606785233712786
ltoes 2.9600606249227903
rfemur -31.546895114032083 -2.4822562206181025 17.25038035372782
rtibia 67.64878971770658
rfoot -1.5419050720680512 -11.330409962240408
rtoes 3.0615770678157315
lowerback 11.132356793235424 -0.21275312409918778 -3.808146286315611
upperback 0.4529649006340431 -0.753757183405625 0.305452678964085
thorax -5.713747528948598 -0.2622725488848664 2.7807489051803937
lowerneck -16.041376208441033 -2.9172945901727982 -2.3414091527150442
upperneck 20.574793261474884 -3.7615141308903164 1.5103485797605853
head 9.201074990891525 -1.7835490235257365 0.40132667283907975
lclavicle -8.826564125930342e-16 -7.495624574590014e-16
lhumerus -28.302590053675495 -1.9408277646248373 81.43895437855231
lradius 32.0056966299623
lwrist 8.023864061394159
lhand -28.41870998468036 22.151339452703823
lfingers 7.125020000000057
lthumb -1.7900927708743883 52.11205524378674
rclavicle -8.82656412593034e-16 -7.495624574590017e-16
rhumerus -33.71460782627711 -19.31900846929195 -79.98548983313161
rradius 31.35742857781385
rwrist 3.255661647564592
rhand -17.30232984506003 29.005365806427534
rfingers 7.125020000000057
rthumb 8.943316494068101 -4.466096993032791
30
root 0.4383503557779219 17.958133069612646 26.314793760133877 -3.0201900774647252 1.0657506754132322 4.366565716963331
lfemur 7.538655514608749 -2.9237495752326157 -31.665279453879087
ltibia 17.664894678465213
lfoot -20.382916650451396 1.1300429406057626
ltoes 2.527300680840786
rfemur -35.1728142583393 -0.6930987881970934 15.248206187354794
rtibia 48.96785503224711
rfoot -1.5788293381083074 -14.319336349100922
rtoes -1.5908234133399404
lowerback 10.572996849140816 -0.8339698186735517 -5.138354581154535
upperback 0.3979135541870071 -1.6864712119781662 0.3979777237770925
thorax -5.3923003517589265 -0.6987134817652317 3.6943207960888342
lowerneck -16.17215797440877 -2.830128599944435 -2.5778173402400104
upperneck 20.555610848334116 -3.5872492814914665 1.4744422434370525
head 9.215779064287421 -1.715300550294 0.4527757500610891
lclavicle -9.201122298955766e-16 -7.781517188154806e-16
lhumerus -25.334593557481234 -4.583476978007025 80.99039448705807
lradius 33.189027894664164
lwrist 8.998810784472811
lhand -28.764507877655394 22.2732830026019
lfingers 7.125020000000057
lthumb -2.124036636685253 52.23395093770725
rclavicle -9.20112229895577e-16 -7.781517188154807e-16
rhumerus -35.86391431500616 -20.825190847481046 -78.869139211502
rradius 30.034138807935975
rwrist 3.91947270446322
rhand -17.293607793300232 28.13715654439548
rfingers 7.125020000000057
rthumb 8.952055213821959 -4.599667020704222
